<?xml version="1.0" standalone="no"?>
<!DOCTYPE svg PUBLIC "-//W3C//DTD SVG 20010904//EN"
 "http://www.w3.org/TR/2001/REC-SVG-20010904/DTD/svg10.dtd">
<svg version="1.0" xmlns="http://www.w3.org/2000/svg"
 width="106.000000pt" height="106.000000pt" viewBox="0 0 106.000000 106.000000"
 preserveAspectRatio="xMidYMid meet">
<metadata>
Created by potrace 1.11, written by Peter Selinger 2001-2013
</metadata>
<g transform="translate(0.000000,106.000000) scale(0.100000,-0.100000)"
fill="#000000" stroke="none">
<path d="M363 874 c-140 -30 -267 -112 -318 -205 -26 -46 -30 -64 -30 -129 0
-92 32 -167 99 -228 221 -203 718 -178 880 45 63 87 78 211 36 298 -27 55
-113 135 -183 169 -127 62 -333 84 -484 50z m298 -140 c49 -25 165 -31 225
-10 44 15 49 15 67 -2 24 -21 62 -79 71 -109 5 -17 3 -23 -7 -23 -8 0 -58 -14
-111 -31 l-96 -31 -46 38 c-199 167 -204 169 -288 109 -31 -21 -61 -35 -80
-35 l-30 0 44 46 c25 25 59 53 75 60 38 18 130 12 176 -12z m-319 -31 l47 4
-25 -31 -26 -30 22 -18 c33 -26 62 -22 119 17 78 54 91 50 220 -60 61 -53 111
-100 111 -105 0 -5 -9 -14 -20 -20 -17 -9 -27 -4 -65 31 -55 51 -73 43 -22 -9
64 -66 36 -107 -34 -50 -47 38 -64 30 -24 -12 17 -17 25 -35 22 -44 -9 -22
-21 -20 -57 10 -38 32 -53 24 -20 -11 l23 -25 -31 0 c-24 0 -30 3 -25 16 7 19
-15 62 -36 69 -9 3 -24 18 -33 35 -11 20 -25 30 -41 30 -12 0 -28 5 -34 11 -7
7 -45 13 -85 15 -47 3 -103 14 -158 34 -47 16 -93 30 -102 30 -35 0 -16 60 37
118 l35 40 78 -25 c53 -17 92 -23 124 -20z m-23 -210 c8 -15 12 -16 22 -5 18
17 46 15 57 -4 5 -9 15 -14 23 -12 23 9 49 -11 49 -37 0 -18 6 -24 28 -27 21
-2 27 -8 27 -27 0 -13 -8 -29 -18 -35 -15 -9 -22 -7 -37 12 -10 12 -29 22 -44
22 -16 0 -30 7 -34 18 -4 10 -18 17 -32 17 -19 0 -26 6 -28 23 -3 18 -9 23
-22 19 -23 -6 -45 17 -36 38 7 20 33 19 45 -2z"/>
</g>
</svg>
